<?xml version="1.0" encoding="UTF-8" standalone="no"?>
<!DOCTYPE svg PUBLIC "-//W3C//DTD SVG 1.1//EN" "http://www.w3.org/Graphics/SVG/1.1/DTD/svg11.dtd">
<svg width="100%" height="100%" viewBox="0 0 2048 1536" version="1.1" xmlns="http://www.w3.org/2000/svg" xmlns:xlink="http://www.w3.org/1999/xlink" xml:space="preserve" xmlns:serif="http://www.serif.com/" style="fill-rule:evenodd;clip-rule:evenodd;stroke-linejoin:round;stroke-miterlimit:2;">
    <g id="_2-breast-plate" serif:id="2 breast plate">
        <rect x="885.159" y="550.614" width="320.246" height="344.169" style="fill:rgb(252,239,239);"/>
        <path d="M1211.29,550.614C1211.29,547.197 1208.65,544.428 1205.4,544.428C1205.4,544.428 885.159,542.777 885.159,542.777C880.831,542.777 877.323,546.286 877.323,550.614L876.105,894.782C876.105,899.783 880.159,903.837 885.159,903.837C885.159,903.837 965.221,903.991 1045.28,903.83C1125.35,903.668 1205.4,903.19 1205.4,903.19C1210.05,903.19 1213.81,899.426 1213.81,894.782L1211.29,550.614ZM1199.48,556.83C1199.48,556.83 1197.44,834.029 1197.06,886.327C1174.55,886.203 1109.92,885.866 1045.28,885.735C981.285,885.606 917.287,885.679 894.182,885.713C894.182,885.713 893.202,608.74 893.024,558.41C941.666,558.159 1199.48,556.83 1199.48,556.83L1199.48,556.83Z"/>
    </g>
</svg>
