<?xml version="1.0" encoding="UTF-8" standalone="no"?>
<!DOCTYPE svg PUBLIC "-//W3C//DTD SVG 1.1//EN" "http://www.w3.org/Graphics/SVG/1.1/DTD/svg11.dtd">
<svg width="100%" height="100%" viewBox="0 0 2048 1536" version="1.1" xmlns="http://www.w3.org/2000/svg" xmlns:xlink="http://www.w3.org/1999/xlink" xml:space="preserve" xmlns:serif="http://www.serif.com/" style="fill-rule:evenodd;clip-rule:evenodd;stroke-linejoin:round;stroke-miterlimit:2;">
    <g id="_1-Layer4" serif:id="1 Layer4">
        <g id="cape-back" serif:id="cape back">
            <rect x="839.908" y="533.945" width="405.002" height="814.834" style="fill:rgb(195,34,34);"/>
            <path d="M1250.79,533.945C1250.79,530.528 1248.16,527.759 1244.91,527.759C1244.91,527.759 839.908,526.593 839.908,526.593C835.847,526.593 832.555,529.884 832.555,533.945L830.853,1348.78C830.853,1353.78 834.907,1357.83 839.908,1357.83L1244.91,1357.65C1249.81,1357.65 1253.78,1353.68 1253.78,1348.78C1253.78,1348.78 1253.31,1145.07 1252.56,941.362C1251.82,737.651 1250.79,533.945 1250.79,533.945ZM1239,540.147C1238.82,575.709 1237.93,758.533 1237.26,941.362C1236.6,1120.01 1236.16,1298.65 1236.06,1339.91C1236.06,1339.91 848.943,1339.73 848.943,1339.73C848.768,1255.95 847.433,617.022 847.275,541.276L1239,540.147Z"/>
        </g>
    </g>
</svg>
